[img]http://img580.imageshack.us/img580/3352/devilqv.jpg[/img]
[code]
The Devil Inside 2012 CAM READNFO XviD AC3-26K

Imdb: 
http://www.imdb.com/title/tt1560985/

Plot:
In Italy, a woman becomes involved in a series of unauthorized exorcisms during her mission to discover 

what happened to her mother, who allegedly murdered three people during her own exorcism.

Sources:
Arthur.Christmas.2011.Read.Nfo.NTSC.DVDSCR.DVDR-JKR-THNXS!!!!!!!!!!!!!

Notes:
WOW A DVDSCR!!! WELL ADDED A FEW FILTERS TO THE VIDEO TO MAKE IT LOOK NICE!!
:p ENJOY!

Greetz:
Xtreme 

Encode|FYA|ILLUMANTI|CM8|RX|VISION|HDSCENE|NIGHTMAREZ|xTriLL|DTRG|CRYS|REMIXHD|BIDA|RX|REFILL|INSPiRAL|SI

C
To all the people who have helped me :P you know who you are

Anything to offer email us @: 26k@hushmail.me

Video
ID                                       : 0
Format                                   : MPEG-4 Visual
Format profile                           : Advanced Simple@L5
Format settings, BVOP                    : 2
Format settings, QPel                    : No
Format settings, GMC                     : No warppoints
Format settings, Matrix                  : Default (H.263)
Muxing mode                              : Packed bitstream
Codec ID                                 : XVID
Codec ID/Hint                            : XviD
Duration                                 : 1h 15mn
Bit rate                                 : 1 796 Kbps
Width                                    : 624 pixels
Height                                   : 320 pixels
Display aspect ratio                     : 1.950
Frame rate                               : 29.970 fps
Color space                              : YUV
Chroma subsampling                       : 4:2:0
Bit depth                                : 8 bits
Scan type                                : Progressive
Compression mode                         : Lossy
Bits/(Pixel*Frame)                       : 0.300
Stream size                              : 967 MiB (89%)
Writing library                          : XviD 64

Audio
ID                                       : 1
Format                                   : AC-3
Format/Info                              : Audio Coding 3
Mode extension                           : CM (complete main)
Codec ID                                 : 2000
Duration                                 : 1h 15mn
Bit rate mode                            : Constant
Bit rate                                 : 224 Kbps
Channel(s)                               : 2 channels
Channel positions                        : Front: L R
Sampling rate                            : 44.1 KHz
Bit depth                                : 16 bits
Compression mode                         : Lossy
Stream size                              : 121 MiB (11%)
Alignment                                : Split accross interleaves
Interleave, duration                     : 9351 ms (280.24 video frames)

[/code]
Screens:
[img]http://img844.imageshack.us/img844/6370/vlcsnap2012011616h50m44.png[/img]
[img]http://img210.imageshack.us/img210/1153/vlcsnap2012011616h50m58.png[/img]
[img]http://img268.imageshack.us/img268/8725/vlcsnap2012011616h51m04.png[/img]
[img]http://img585.imageshack.us/img585/9461/vlcsnap2012011616h51m19.png[/img]


[img]http://img851.imageshack.us/img851/5503/26ks.jpg[/img]
Thank you smallz for banner!